<mxfile host="app.diagrams.net" modified="2022-07-06T11:22:24.464Z" agent="5.0 (Windows NT 6.1; Win64; x64) AppleWebKit/537.36 (KHTML, like Gecko) Chrome/103.0.0.0 Safari/537.36" etag="xpl9JLVFp0E-m9_JWp8C" version="20.0.4" type="github">
  <diagram id="C5RBs43oDa-KdzZeNtuy" name="Page-1">
    <mxGraphModel dx="1634" dy="909" grid="1" gridSize="10" guides="1" tooltips="1" connect="1" arrows="1" fold="1" page="1" pageScale="1" pageWidth="827" pageHeight="1169" math="0" shadow="0">
      <root>
        <mxCell id="WIyWlLk6GJQsqaUBKTNV-0" />
        <mxCell id="WIyWlLk6GJQsqaUBKTNV-1" parent="WIyWlLk6GJQsqaUBKTNV-0" />
        <mxCell id="7n2M6hzLdqP69e94m7ce-0" value="Pessoa ( superclasse )" style="swimlane;fontStyle=1;align=center;verticalAlign=top;childLayout=stackLayout;horizontal=1;startSize=30;horizontalStack=0;resizeParent=1;resizeParentMax=0;resizeLast=0;collapsible=1;marginBottom=0;" vertex="1" parent="WIyWlLk6GJQsqaUBKTNV-1">
          <mxGeometry x="-50" y="80" width="250" height="288" as="geometry" />
        </mxCell>
        <mxCell id="7n2M6hzLdqP69e94m7ce-1" value="+ nome: String&#xa;+ cpf: String&#xa;+ rg: String&#xa;+ dataNascimento: String&#xa;+ sexo: String&#xa;+ mae: String&#xa;+ pai: String&#xa;+ cep: String&#xa;+ endereco: String&#xa;+ numero: String&#xa;+ bairro: String&#xa;+ cidade: String&#xa;+ estado: String&#xa;+ celular: String&#xa;" style="text;strokeColor=none;fillColor=none;align=left;verticalAlign=top;spacingLeft=4;spacingRight=4;overflow=hidden;rotatable=0;points=[[0,0.5],[1,0.5]];portConstraint=eastwest;" vertex="1" parent="7n2M6hzLdqP69e94m7ce-0">
          <mxGeometry y="30" width="250" height="204" as="geometry" />
        </mxCell>
        <mxCell id="7n2M6hzLdqP69e94m7ce-2" value="" style="line;strokeWidth=1;fillColor=none;align=left;verticalAlign=middle;spacingTop=-1;spacingLeft=3;spacingRight=3;rotatable=0;labelPosition=right;points=[];portConstraint=eastwest;" vertex="1" parent="7n2M6hzLdqP69e94m7ce-0">
          <mxGeometry y="234" width="250" height="28" as="geometry" />
        </mxCell>
        <mxCell id="7n2M6hzLdqP69e94m7ce-3" value="+ get e set(atributo): encapsulamento" style="text;strokeColor=none;fillColor=none;align=left;verticalAlign=top;spacingLeft=4;spacingRight=4;overflow=hidden;rotatable=0;points=[[0,0.5],[1,0.5]];portConstraint=eastwest;" vertex="1" parent="7n2M6hzLdqP69e94m7ce-0">
          <mxGeometry y="262" width="250" height="26" as="geometry" />
        </mxCell>
        <mxCell id="7n2M6hzLdqP69e94m7ce-7" value="Cliente ( subclasse )" style="swimlane;fontStyle=1;align=center;verticalAlign=top;childLayout=stackLayout;horizontal=1;startSize=26;horizontalStack=0;resizeParent=1;resizeParentMax=0;resizeLast=0;collapsible=1;marginBottom=0;" vertex="1" parent="WIyWlLk6GJQsqaUBKTNV-1">
          <mxGeometry x="-300" y="420" width="250" height="184" as="geometry" />
        </mxCell>
        <mxCell id="7n2M6hzLdqP69e94m7ce-8" value="+ contaCorrete: String&#xa;+ agencia: String&#xa;+ senha: String&#xa;+ reclamacoes: ArrayList&lt;String&gt;&#xa;+ dataCadastro: DateLocal&#xa;+ email: String&#xa;&#xa;" style="text;strokeColor=none;fillColor=none;align=left;verticalAlign=top;spacingLeft=4;spacingRight=4;overflow=hidden;rotatable=0;points=[[0,0.5],[1,0.5]];portConstraint=eastwest;" vertex="1" parent="7n2M6hzLdqP69e94m7ce-7">
          <mxGeometry y="26" width="250" height="104" as="geometry" />
        </mxCell>
        <mxCell id="7n2M6hzLdqP69e94m7ce-20" value="Extends" style="endArrow=block;endSize=16;endFill=0;html=1;rounded=0;" edge="1" parent="7n2M6hzLdqP69e94m7ce-7" target="7n2M6hzLdqP69e94m7ce-3">
          <mxGeometry width="160" relative="1" as="geometry">
            <mxPoint x="250" y="91.57999999999998" as="sourcePoint" />
            <mxPoint x="380" y="-30" as="targetPoint" />
          </mxGeometry>
        </mxCell>
        <mxCell id="7n2M6hzLdqP69e94m7ce-9" value="" style="line;strokeWidth=1;fillColor=none;align=left;verticalAlign=middle;spacingTop=-1;spacingLeft=3;spacingRight=3;rotatable=0;labelPosition=right;points=[];portConstraint=eastwest;" vertex="1" parent="7n2M6hzLdqP69e94m7ce-7">
          <mxGeometry y="130" width="250" height="28" as="geometry" />
        </mxCell>
        <mxCell id="7n2M6hzLdqP69e94m7ce-10" value="+ get e set(atributo): encapsulamento" style="text;strokeColor=none;fillColor=none;align=left;verticalAlign=top;spacingLeft=4;spacingRight=4;overflow=hidden;rotatable=0;points=[[0,0.5],[1,0.5]];portConstraint=eastwest;" vertex="1" parent="7n2M6hzLdqP69e94m7ce-7">
          <mxGeometry y="158" width="250" height="26" as="geometry" />
        </mxCell>
        <mxCell id="7n2M6hzLdqP69e94m7ce-11" value="Funcionario ( subclasse )" style="swimlane;fontStyle=1;align=center;verticalAlign=top;childLayout=stackLayout;horizontal=1;startSize=26;horizontalStack=0;resizeParent=1;resizeParentMax=0;resizeLast=0;collapsible=1;marginBottom=0;" vertex="1" parent="WIyWlLk6GJQsqaUBKTNV-1">
          <mxGeometry x="200" y="420" width="250" height="184" as="geometry" />
        </mxCell>
        <mxCell id="7n2M6hzLdqP69e94m7ce-12" value="+ feedBack: ArrayList&lt;String&gt;&#xa;+ baterPonto: DateLocalTime&#xa;+ senha: String&#xa;+ dataAdmissao: DateLocal&#xa;+ dataDemissao: DateLocal&#xa;&#xa;" style="text;strokeColor=none;fillColor=none;align=left;verticalAlign=top;spacingLeft=4;spacingRight=4;overflow=hidden;rotatable=0;points=[[0,0.5],[1,0.5]];portConstraint=eastwest;" vertex="1" parent="7n2M6hzLdqP69e94m7ce-11">
          <mxGeometry y="26" width="250" height="104" as="geometry" />
        </mxCell>
        <mxCell id="7n2M6hzLdqP69e94m7ce-13" value="" style="line;strokeWidth=1;fillColor=none;align=left;verticalAlign=middle;spacingTop=-1;spacingLeft=3;spacingRight=3;rotatable=0;labelPosition=right;points=[];portConstraint=eastwest;" vertex="1" parent="7n2M6hzLdqP69e94m7ce-11">
          <mxGeometry y="130" width="250" height="28" as="geometry" />
        </mxCell>
        <mxCell id="7n2M6hzLdqP69e94m7ce-14" value="+ get e set(atributo): encapsulamento" style="text;strokeColor=none;fillColor=none;align=left;verticalAlign=top;spacingLeft=4;spacingRight=4;overflow=hidden;rotatable=0;points=[[0,0.5],[1,0.5]];portConstraint=eastwest;" vertex="1" parent="7n2M6hzLdqP69e94m7ce-11">
          <mxGeometry y="158" width="250" height="26" as="geometry" />
        </mxCell>
        <mxCell id="7n2M6hzLdqP69e94m7ce-21" value="Extends" style="endArrow=block;endSize=16;endFill=0;html=1;rounded=0;exitX=-0.003;exitY=0.633;exitDx=0;exitDy=0;exitPerimeter=0;" edge="1" parent="WIyWlLk6GJQsqaUBKTNV-1" source="7n2M6hzLdqP69e94m7ce-12" target="7n2M6hzLdqP69e94m7ce-3">
          <mxGeometry width="160" relative="1" as="geometry">
            <mxPoint x="30" y="541.5799999999999" as="sourcePoint" />
            <mxPoint x="80" y="390" as="targetPoint" />
          </mxGeometry>
        </mxCell>
      </root>
    </mxGraphModel>
  </diagram>
</mxfile>
